<?xml version="1.0" encoding="UTF-8"?>
<svg id="Capa_2" data-name="Capa 2" xmlns="http://www.w3.org/2000/svg" viewBox="0 0 1079.16 1078.86">
  <defs>
    <style>
      .cls-1 {
        fill: #000;
        stroke-width: 0px;
      }
    </style>
  </defs>
  <g id="Capa_1-2" data-name="Capa 1">
    <path class="cls-1" d="M1079.1,319.56v-27.52c-.22-111.62-90.71-202.03-202.33-202.15h-67.43V22.46C809.32,10.05,799.25,0,786.84,0c-12.4,0-22.45,10.06-22.46,22.46v67.43h-449.58V22.46c-.87-12.38-11.62-21.72-24-20.84-11.17.79-20.06,9.67-20.84,20.84v67.43h-67.54C90.78,90.01.3,180.42.07,292.04v27.13c-.1,3.65-.1,7.32,0,11.01v546.35c.12,111.69,90.64,202.21,202.33,202.33h674.36c111.69-.12,202.21-90.64,202.33-202.33V330.03c.09-3.51.09-7,0-10.47ZM1034.14,876.67c-.08,86.88-70.49,157.3-157.38,157.38H202.41c-86.85-.1-157.24-70.49-157.34-157.34v-472.1h989.08v472.06Z"/>
  </g>
</svg>