<?xml version="1.0" encoding="UTF-8"?>
<svg id="Capa_2" data-name="Capa 2" xmlns="http://www.w3.org/2000/svg" viewBox="0 0 122.83 80.03">
  <defs>
    <style>
      .cls-1 {
        fill: #000;
        fill-rule: evenodd;
        stroke-width: 0px;
      }
    </style>
  </defs>
  <g id="Capa_1-2" data-name="Capa 1">
    <g>
      <path class="cls-1" d="M4.54,37.32c1.59.57,42.44.05,48.09.12,3.88.05,23.61.43,22.59-.21-.81-.55-6.97-1.83-9.28-2.99-2.83-1.4-4.76-3.11-6.64-5.6-9-11.89,1.19-15.9-6.88-15.92-13.52-.05-21.09,8.95-31.97,16.8-2.36,1.68-5,3.37-7.59,4.68-.95.45-8.28,2.8-8.31,3.13h0Z"/>
      <path class="cls-1" d="M13.44,29.32l.05.05c1.33,1.33,25.3-17.16,28.78-18.89,5.26-2.66,13.52-4.46,18.16.31,4.05,4.18-3.4,7.17.1,6.79,2.88-.33,5.67-2.97,6.59-5.65C69.43,5.12,62.03.32,56.05.02c-6.24-.28-12.31,3.3-17.09,6.95-9.24,7.12-15.14,15-25.52,22.36h0Z"/>
      <path class="cls-1" d="M117.73,33.45c-8.01,3.4,8.93,6.15-24.15,6.02-23.1,0-14.83-2.22-14.96-10.21-11.68-.65-8.14,26.69,8.53,15.96.79,8.77-2.89,21.33.13,29.31l3.41,1.31c3.15-7.07-1.05-22.9,3.94-28.13,3.68,3.66,1.97,11.25,1.71,16.23-.53,14.39-2.1,13.74,2.89,16.1,5.38-3.93.66-22.64,4.59-31.27,4.99-1.05,10.11,1.18,13.39-3.27,2.76-3.79,2.76-8.24.53-12.04h0Z"/>
      <path class="cls-1" d="M102.63,14.34c6.56-4.06,14.7-2.09,14.83,6.54-5.12,2.62-9.71,1.83-15.36,1.31-1.44-3.93-.92-4.06.53-7.85h0ZM93.05,21.28c-3.54.79-10.24,1.18-13.78.26-4.86-1.31-3.28-6.28-1.18-8.37,4.2-3.93,16.41-2.75,14.96,8.11h0ZM121.4,22.98c3.02-5.76,1.31-13.09-5.64-14.39-3.28-.65-37.41-2.09-40.43-.52-4.33,2.36-4.07,11.65-2.1,15.57,8.01,2.49,42.4,4.32,48.17-.65h0Z"/>
      <path class="cls-1" d="M80.19,31.62c.39,4.19.39,4.58,5.51,4.97,3.02.13,6.96,0,10.11,0,9.98.13,15.23,1.44,16.41-3.4-4.2-3.93-2.63-1.18-6.96.13-6.83,2.09-20.87-1.31-25.07-1.7h0Z"/>
      <g>
        <path class="cls-1" d="M23.71,42.31c-1.33,3.94-.49,8.48-.27,12.77.17,5.29-.04,8.84,5.47,10.75.81-2.91-.79-5.31-.52-9.39.34-4.61,1.54-4.67,2.87-8.61-2.21-3.04-4.27-4.08-7.55-5.53h0Z"/>
        <path class="cls-1" d="M33.24,49.17c-3.92,3.93-4.3,9.78,1.01,13.52l3.86-2.3c.21-4.41-1.97-7.83-4.87-11.21h0Z"/>
        <path class="cls-1" d="M20.71,53.07c.91-2.96,1.1-8.71.21-12l-7.48-2.14,7.26,14.15Z"/>
      </g>
      <path class="cls-1" d="M49.15,41.24c-6.29,7.92-9.06,26.98-15.06,32.12-7.9-1.32-11.11-11.88-15.94-17.16C9.82,46.96-.56,53.56.02,61.92c5.26.73,3.07-2.93,10.53-5.28,10.53,5.13,10.67,24.78,24.56,22.73,8.63-1.32,11.7-25.08,17.4-32.12,1.17-.73,16.52,2.93,15.94,9.68-6.29-1.47-8.63-7.04-15.06-4.55.73,5.13-1.46,2.64,4.39,5.13,1.02.44,5.26,1.76,6.58,2.2,21.2,6.6,3.66-20.97-15.21-18.48h0Z"/>
    </g>
  </g>
</svg>