<?xml version="1.0" encoding="UTF-8"?>
<svg id="Capa_2" data-name="Capa 2" xmlns="http://www.w3.org/2000/svg" viewBox="0 0 74.26 74.39">
  <defs>
    <style>
      .cls-1, .cls-2 {
        fill: #000;
        stroke-width: 0px;
      }

      .cls-3 {
        stroke-width: 4px;
      }

      .cls-3, .cls-2, .cls-4 {
        fill-rule: evenodd;
      }

      .cls-3, .cls-4 {
        fill: none;
        stroke: #000;
        stroke-miterlimit: 10;
      }

      .cls-4 {
        stroke-width: 2px;
      }
    </style>
  </defs>
  <g id="Capa_1-2" data-name="Capa 1">
    <g>
      <path class="cls-3" d="M23.76,55.76c-4.15,0-8-1.89-10.56-5.18l-10.66-13.66,10.66-13.67c2.57-3.29,6.41-5.18,10.56-5.18h21.61c4.07,0,7.88,1.83,10.44,5.03l11.08,13.82-11.08,13.82c-2.57,3.2-6.37,5.03-10.45,5.03h-21.61Z"/>
      <path class="cls-4" d="M23.76,48.9c-2.02,0-3.89-.92-5.15-2.54l-6.44-8.26c-.54-.7-.54-1.68,0-2.37l6.44-8.26c1.26-1.61,3.13-2.53,5.15-2.53h21.61c1.98,0,3.84.9,5.09,2.46l6.67,8.32c.57.71.57,1.71,0,2.42l-6.67,8.31c-1.26,1.56-3.11,2.46-5.09,2.46h-21.61Z"/>
      <path class="cls-2" d="M51.26,35.7l-4.37-5.45c-.38-.48-.94-.75-1.52-.75h-21.61c-.6,0-1.16.28-1.54.77l-4.25,5.45c-.55.7-.55,1.68,0,2.38l4.25,5.45c.38.49.95.77,1.54.77h21.61c.59,0,1.14-.27,1.52-.75l4.37-5.45c.57-.71.57-1.72,0-2.42ZM28.45,40.52c-1.27-3.59-2.69-7.02,1.81-7.54,1.25,1.9,1.45,5.35,1.71,7.88l-3.52-.34ZM41.36,38.97c-2.89,1.5-3.03,1.88-6.48,1.54-5.61-7.98,3.87-8.03,7.19-6.08-2.95,2.42-3.29.12-4.71,2.82l4,1.71Z"/>
      <path class="cls-1" d="M30.39,68.09l-17.66,6.22c-.97.34-1.98-.4-1.95-1.43l.46-13.43c.04-1.02,1.08-1.69,2.03-1.3l17.2,7.21c1.23.52,1.18,2.28-.08,2.73Z"/>
      <path class="cls-1" d="M51.81,68.09l-17.66,6.22c-.97.34-1.98-.4-1.95-1.43l.46-13.43c.04-1.02,1.08-1.69,2.03-1.3l17.2,7.21c1.23.52,1.18,2.28-.08,2.73Z"/>
      <path class="cls-1" d="M73.26,68.09l-17.66,6.22c-.97.34-1.98-.4-1.95-1.43l.46-13.43c.04-1.02,1.08-1.69,2.03-1.3l17.2,7.21c1.23.52,1.18,2.28-.08,2.73Z"/>
      <path class="cls-1" d="M54.65,6.3L72.31.08c.97-.34,1.98.4,1.95,1.43l-.46,13.43c-.04,1.02-1.08,1.69-2.03,1.3l-17.2-7.21c-1.23-.52-1.18-2.28.08-2.73Z"/>
      <path class="cls-1" d="M33.21,6.3L50.87.08c.97-.34,1.98.4,1.95,1.43l-.46,13.43c-.04,1.02-1.08,1.69-2.03,1.3l-17.2-7.21c-1.23-.52-1.18-2.28.08-2.73Z"/>
      <path class="cls-1" d="M11.76,6.3L29.42.08c.97-.34,1.98.4,1.95,1.43l-.46,13.43c-.04,1.02-1.08,1.69-2.03,1.3l-17.2-7.21c-1.23-.52-1.18-2.28.08-2.73Z"/>
      <g>
        <path class="cls-2" d="M2.8,30.07c4.37-1.79,5.8-6.36,5.45-11-3.51-.14-3.65,0-6.52-1.5-1,4.36-.43,8.43,1.07,12.5h0Z"/>
        <path class="cls-2" d="M6.72,44.42c-4.37,1.79-5.8,6.36-5.45,11,3.51.14,3.65,0,6.52,1.5,1-4.36.43-8.43-1.07-12.5h0Z"/>
      </g>
    </g>
  </g>
</svg>