<?xml version="1.0" encoding="UTF-8"?>
<svg id="Capa_2" data-name="Capa 2" xmlns="http://www.w3.org/2000/svg" viewBox="0 0 2274.04 1954.59">
  <defs>
    <style>
      .cls-1 {
        fill: none;
        fill-rule: evenodd;
        stroke: #989898;
        stroke-miterlimit: 10;
        stroke-width: 3px;
      }
    </style>
  </defs>
  <g id="Capa_2-2" data-name="Capa 2">
    <polygon class="cls-1" points="2272.06 100.46 2272.06 2.12 2263.87 5.01 2259.53 7.42 2251.81 13.69 2250.37 14.17 2246.03 14.65 2241.21 16.1 2236.87 18.99 2225.3 27.19 2220.96 32.01 2215.18 38.28 2192.52 53.7 2188.66 55.15 2180.95 55.15 2171.79 55.63 2166.97 56.59 2158.77 60.45 2143.83 62.38 2138.53 64.31 2133.71 66.24 2128.89 69.13 2115.39 79.73 2102.37 86.48 2092.73 89.37 2086.94 92.27 2072 100.46 2066.21 105.76 2059.47 110.1 2057.54 110.1 2050.79 113.48 2037.29 117.82 2024.28 120.71 2014.63 124.08 2012.71 125.05 2011.26 125.05 2009.81 127.94 2005 132.28 2000.66 133.24 1980.45 136.62 1974.18 138.55 1967.91 141.92 1963.09 145.78 1957.31 151.08 1952 157.35 1943.33 169.88 1939.47 171.81 1930.31 174.7 1919.71 176.63 1912.48 178.08 1899.94 183.38 1896.09 185.31 1883.55 194.95 1878.73 197.36 1872.95 198.32 1851.73 193.98 1844.99 192.06 1838.72 192.06 1835.34 193.5 1829.56 202.66 1824.74 208.45 1818.95 213.27 1810.28 221.94 1802.56 228.69 1794.37 238.33 1786.65 244.6 1781.83 247.5 1779.42 249.9 1775.08 261.96 1772.19 268.71 1766.89 275.46 1759.66 281.72 1748.57 288.95 1744.23 293.77 1741.34 298.11 1732.66 306.31 1726.88 308.23 1720.13 308.72 1713.38 310.65 1706.15 311.61 1699.4 313.06 1693.61 313.54 1691.2 313.06 1688.8 312.09 1685.9 308.23 1685.9 306.31 1686.38 304.38 1686.38 299.08 1685.42 296.18 1679.63 292.33 1648.3 280.27 1641.07 278.83 1635.28 277.38 1621.78 279.79 1615.04 281.72 1599.61 283.65 1591.42 283.65 1585.15 282.2 1580.81 280.27 1575.03 281.24 1568.76 285.1 1563.46 288.47 1543.21 297.63 1535.98 302.93 1530.67 309.68 1529.23 314.02 1526.82 318.84 1522.96 322.7 1510.43 332.34 1506.09 331.38 1504.64 330.89 1503.2 330.89 1502.23 329.93 1499.34 330.41 1494.04 331.38 1492.11 337.64 1483.43 345.84 1481.5 346.32 1477.16 346.32 1476.2 345.36 1473.79 341.5 1472.82 339.57 1472.34 334.75 1471.86 332.82 1469.45 330.41 1465.11 328.96 1461.74 329.45 1454.51 333.3 1452.09 334.75 1450.17 337.16 1445.35 344.87 1441.49 350.17 1439.08 350.66 1436.67 348.25 1431.85 341.98 1426.55 340.05 1421.24 339.09 1419.32 338.12 1414.01 334.75 1408.23 332.82 1404.37 331.86 1401.48 332.34 1391.36 336.68 1387.5 340.05 1386.53 340.53 1385.09 344.39 1381.71 348.73 1375.45 353.07 1371.59 357.89 1370.14 358.85 1366.77 359.82 1365.32 358.37 1363.87 353.07 1361.95 351.62 1358.09 351.14 1354.72 353.07 1349.9 356.44 1341.7 357.41 1337.36 357.41 1325.31 352.11 1323.86 351.62 1320.49 352.11 1317.6 354.03 1315.67 355.96 1311.33 364.64 1309.88 366.09 1305.55 368.49 1300.24 369.46 1297.83 368.98 1295.9 367.53 1290.6 356.44 1286.75 355.96 1283.37 356.44 1278.55 356.92 1278.07 356.44 1278.07 355 1279.99 353.07 1281.92 352.59 1283.37 350.66 1284.33 345.84 1283.85 343.91 1281.44 341.5 1276.62 340.05 1272.28 338.12 1271.8 336.68 1272.28 334.75 1278.07 333.3 1279.51 332.82 1279.51 330.89 1279.51 329.45 1277.59 327.52 1276.14 327.04 1270.36 327.52 1268.43 328.96 1266.02 333.3 1264.09 333.79 1260.71 330.89 1255.89 329.45 1254.45 328.48 1254.45 324.14 1255.41 322.21 1257.82 321.73 1266.5 321.25 1267.46 319.32 1266.5 318.36 1265.05 317.4 1259.26 315.95 1256.86 314.98 1254.45 313.06 1252.03 311.13 1258.3 305.83 1256.86 302.45 1255.41 301.49 1253 301.49 1247.7 302.45 1247.21 301.49 1246.73 296.18 1240.95 291.85 1237.57 289.92 1237.57 288.95 1238.06 287.51 1241.91 286.54 1243.36 285.58 1243.84 283.17 1242.88 282.2 1236.61 282.2 1229.38 280.27 1226.97 281.24 1226 280.76 1225.04 278.35 1223.59 276.42 1220.22 274.97 1219.74 272.08 1217.81 268.71 1210.58 268.71 1207.2 269.67 1206.72 265.33 1205.76 262.92 1203.83 260.99 1201.42 260.51 1199.97 260.03 1196.6 257.14 1193.71 254.24 1192.74 252.31 1190.33 249.9 1189.85 246.53 1187.44 244.6 1185.99 242.19 1178.76 235.92 1178.28 232.55 1176.83 229.18 1173.94 228.21 1170.08 227.73 1169.6 227.25 1168.64 225.32 1168.64 222.43 1166.71 219.05 1161.41 211.34 1160.44 205.07 1159.48 203.14 1156.1 199.77 1154.66 197.84 1153.69 195.91 1153.21 193.02 1151.76 184.83 1147.43 177.11 1149.83 172.29 1147.43 169.4 1143.57 168.43 1142.12 165.54 1141.16 162.65 1139.71 160.24 1138.75 157.83 1137.3 156.38 1135.37 151.56 1133.45 148.19 1132 147.7 1120.43 142.89 1110.79 137.1 1101.63 132.76 1097.77 125.05 1097.29 119.26 1097.77 113 1098.74 111.07 1101.63 105.28 1101.63 102.87 1101.15 101.91 1100.67 101.43 1097.77 101.43 1076.08 255.69 1057.76 380.07 1056.31 388.26 1053.42 414.29 1052.94 413.33 1048.12 411.4 1046.67 408.99 1045.71 408.51 1041.85 408.03 1041.37 407.54 1041.37 404.65 1040.41 403.69 1039.44 403.69 1038 404.17 1035.1 402.24 1034.14 401.28 1031.73 400.79 1030.76 399.83 1030.28 397.9 1027.39 396.94 1026.91 395.01 1025.46 394.53 1024.98 393.08 1024.5 392.6 1023.05 393.08 1021.6 393.08 1022.09 391.15 1021.6 390.67 1020.16 391.15 1018.71 392.6 1017.27 393.08 1014.37 388.26 1012.45 388.26 1009.55 386.33 1008.59 385.85 1008.59 384.88 1009.55 384.4 1010.03 383.44 1009.07 381.51 1009.07 380.07 1010.03 379.58 1010.03 378.62 1005.21 372.83 1002.8 370.9 998.47 369.94 996.54 370.42 993.16 369.94 989.79 369.94 987.86 368.98 986.89 367.53 982.07 366.57 977.25 367.05 975.33 365.6 973.4 366.09 967.13 365.6 964.24 364.16 961.83 364.16 958.93 363.19 956.53 363.67 955.08 362.23 951.7 362.71 947.37 359.34 946.88 358.37 945.92 357.89 943.51 358.37 940.62 357.41 938.21 357.89 935.31 355.48 929.05 352.59 924.71 348.73 921.33 348.25 916.51 349.21 907.35 348.73 901.09 350.66 897.71 349.69 895.78 350.17 894.82 350.66 890.96 350.66 886.14 352.11 882.29 352.59 878.91 355.48 875.54 356.44 874.09 356.44 869.75 359.82 866.86 363.67 866.38 365.6 865.41 366.57 863.97 367.05 860.11 366.09 858.18 367.53 856.74 369.46 855.29 370.42 846.61 372.83 841.79 372.83 839.38 371.87 836.49 371.87 835.04 370.42 832.15 368.98 829.74 365.6 827.33 364.64 821.54 364.16 817.69 363.19 812.87 362.71 810.46 360.3 808.53 359.34 806.12 356.44 802.74 354.03 801.78 353.07 801.78 351.62 800.33 350.17 800.33 347.28 802.26 341.5 799.85 335.71 799.85 333.79 799.37 331.38 797.44 328.48 793.59 322.21 788.28 314.02 787.8 312.09 788.28 306.31 785.39 300.04 785.39 298.11 786.35 297.15 786.35 292.81 787.8 288.95 789.25 287.51 789.25 287.02 784.42 284.61 779.61 280.76 778.16 278.35 776.71 274.49 775.75 273.04 769 266.78 768.04 265.81 771.41 263.89 772.86 261.47 773.82 257.14 774.3 252.31 773.82 250.39 774.3 248.94 776.23 246.53 779.61 243.64 782.5 243.16 786.35 243.64 786.84 243.16 787.32 242.19 787.8 234.96 788.76 231.58 791.17 226.77 795.03 221.94 788.28 216.16 785.87 214.71 775.75 215.68 773.34 215.2 770.93 214.23 766.11 210.37 762.25 206.04 760.8 205.07 758.88 204.11 757.91 204.59 752.13 207.48 742.97 216.64 741.52 217.12 739.11 215.2 738.15 214.23 737.18 212.3 735.74 211.82 734.29 214.23 730.43 216.64 729.95 217.12 729.47 219.05 728.5 222.91 724.17 227.73 721.76 232.55 719.83 231.1 716.45 230.14 709.7 231.1 706.33 232.55 701.51 237.37 693.79 248.94 693.31 249.9 695.72 254.73 695.72 256.17 695.24 258.1 692.35 264.37 690.9 266.29 689.46 267.26 687.53 267.74 685.6 267.26 682.71 266.29 681.74 266.29 680.78 266.78 676.44 270.15 672.58 274.01 669.21 274.49 666.8 273.53 664.87 273.53 662.94 274.01 661.5 274.97 657.16 280.27 651.37 289.92 649.93 294.74 649.93 296.67 650.89 300.04 656.68 308.72 657.64 309.2 659.57 312.57 660.05 315.95 660.05 324.63 661.01 328 665.83 338.61 666.32 341.02 666.8 348.73 664.39 359.82 664.87 364.16 665.35 365.6 666.8 367.53 670.17 370.42 674.99 373.32 676.92 375.24 681.26 379.58 682.23 381.99 682.71 382.96 682.23 385.37 679.33 397.9 681.74 400.31 682.71 405.61 682.23 408.51 683.19 409.47 683.67 411.4 686.56 416.22 688.49 417.67 688.97 418.63 688.97 420.08 688.49 420.56 685.12 422.97 680.3 423.93 670.17 422.49 662.46 420.56 658.6 420.08 655.71 421.04 650.89 421.52 647.03 419.59 646.07 420.08 643.18 431.16 641.73 432.13 639.32 433.09 632.57 432.61 627.75 432.61 616.66 437.43 610.4 443.7 604.61 447.07 595.93 449.48 592.56 449.97 588.7 449.48 580.99 449.97 576.65 451.89 574.72 454.78 572.31 459.61 569.9 468.77 567.49 475.03 566.53 476.96 564.6 478.89 559.3 480.34 553.99 478.89 550.14 477.44 546.76 476.96 537.6 477.93 531.82 477.93 527 480.34 523.14 482.74 520.73 485.16 517.36 491.42 514.95 499.14 513.5 501.06 512.05 502.03 506.27 502.51 500.48 504.44 494.22 511.19 490.36 516.01 484.58 518.9 482.65 520.83 479.27 525.65 477.34 529.03 476.38 530.95 472.52 535.77 468.19 538.67 464.81 540.11 459.03 540.11 454.69 539.15 449.87 536.74 444.08 532.88 441.19 532.4 438.3 532.88 435.89 532.4 429.14 532.88 420.46 530.95 416.12 529.51 412.75 530.47 410.34 532.4 407.44 534.33 405.03 537.22 402.14 541.56 398.77 547.83 394.91 559.88 392.02 566.14 389.61 569.52 385.75 574.82 379 582.54 367.43 598.93 362.61 603.75 360.68 604.23 355.38 604.23 353.93 604.71 352.49 607.6 352.01 609.05 352.01 610.5 356.83 615.31 357.79 616.76 358.75 618.69 357.31 629.78 355.86 635.56 352.01 642.79 349.11 643.76 346.22 643.76 345.74 642.79 344.77 640.38 343.81 639.42 342.36 639.42 339.95 639.42 338.03 640.87 336.1 642.79 333.69 647.61 332.72 647.61 331.76 647.13 330.31 647.13 325.97 650.99 323.56 655.81 320.19 658.7 319.23 661.11 312.48 663.04 309.58 667.86 308.14 669.31 301.87 672.2 300.91 673.65 301.39 675.09 303.8 677.98 304.28 679.43 304.28 680.4 302.83 683.29 302.35 684.25 301.39 683.77 299.46 681.36 298.5 681.36 297.53 683.29 297.05 687.63 295.6 690.04 294.16 691 292.23 691 288.37 690.52 285 689.07 283.07 689.56 281.62 692.93 278.25 694.86 274.39 695.34 277.77 702.09 278.25 705.46 277.77 714.14 273.91 722.82 271.5 726.19 269.09 728.6 267.16 732.46 264.27 735.83 255.59 738.24 243.54 745.48 233.42 752.71 229.56 761.87 227.63 771.03 222.33 781.15 212.2 797.06 208.35 806.7 210.76 810.07 217.03 811.52 220.88 814.89 226.18 817.79 233.42 819.72 235.34 825.5 232.93 832.73 227.63 839.48 225.22 846.71 224.26 852.98 226.67 858.76 227.63 868.89 229.08 872.26 226.67 876.6 221.36 877.56 214.13 882.39 210.28 888.17 208.83 895.88 207.38 912.27 201.12 922.4 189.07 932.52 178.46 939.75 176.53 953.25 177.01 961.44 174.6 973.5 174.6 977.35 174.6 980.73 172.67 987.48 171.23 989.89 169.78 992.78 166.41 1001.46 151.95 1017.36 148.09 1019.77 142.79 1025.56 135.07 1030.86 132.18 1033.27 127.84 1038.58 121.09 1045.8 113.38 1050.63 86.38 1059.3 76.26 1066.06 71.92 1069.91 65.17 1072.8 61.8 1075.21 53.6 1078.59 45.89 1083.41 38.66 1090.16 36.73 1093.05 33.84 1095.94 30.94 1098.84 29.5 1102.69 25.64 1106.55 16.96 1118.6 12.14 1124.38 9.73 1126.79 5.88 1133.06 2.98 1139.33 1.54 1148.49 2.5 1151.38 4.91 1153.31 29.02 1165.84 32.87 1167.29 39.62 1168.74 45.89 1171.15 50.23 1171.15 53.12 1172.59 64.69 1175 69.03 1177.9 80.6 1182.71 92.65 1192.84 96.03 1194.29 107.59 1202 117.24 1206.34 127.84 1209.23 136.52 1208.27 154.36 1209.23 160.14 1210.19 163.03 1211.64 165.92 1217.43 167.85 1219.83 170.75 1226.1 171.71 1230.44 172.67 1234.29 174.12 1249.72 173.16 1253.09 172.67 1260.33 173.16 1265.15 173.16 1268.04 177.98 1275.75 180.39 1278.16 185.21 1282.02 190.99 1283.47 201.6 1285.4 216.54 1289.25 222.33 1292.14 226.18 1295.52 229.08 1302.27 230.04 1308.54 231.97 1315.77 231.49 1318.66 228.11 1328.3 216.06 1343.73 191.48 1360.12 173.64 1370.24 162.07 1383.26 154.36 1397.72 149.53 1409.77 147.13 1418.93 146.64 1442.55 146.16 1447.85 148.57 1461.36 146.64 1465.21 143.27 1466.65 135.07 1466.65 128.32 1467.14 123.5 1470.03 121.09 1475.33 116.75 1500.4 116.75 1507.15 111.93 1516.79 110 1525.96 105.67 1538.01 105.19 1544.75 109.04 1551.02 117.24 1558.25 137.97 1569.82 149.53 1573.2 168.82 1576.57 182.8 1580.42 187.62 1584.28 194.85 1597.78 198.71 1612.24 202.08 1629.6 203.53 1643.09 203.53 1659 204.49 1667.68 198.22 1676.36 187.14 1686 174.12 1700.94 166.89 1714.92 164 1740.96 164 1764.57 166.41 1790.61 167.85 1798.32 173.16 1806.03 178.46 1812.3 180.39 1813.75 185.21 1814.23 194.85 1817.12 201.6 1817.61 208.35 1819.05 212.69 1820.02 218.95 1822.91 224.26 1825.8 227.15 1828.21 229.56 1829.17 236.31 1834 237.76 1835.92 244.99 1840.26 251.25 1841.71 255.59 1841.22 261.86 1842.68 265.72 1841.22 274.39 1840.26 277.77 1840.75 281.62 1842.68 286.93 1848.94 295.12 1855.69 301.39 1860.02 304.28 1860.99 311.51 1860.02 316.81 1858.58 330.79 1852.31 334.65 1850.39 340.92 1847.97 346.7 1850.39 350.08 1852.8 352.97 1855.69 364.54 1868.22 371.29 1878.83 374.18 1885.09 374.18 1889.43 372.25 1898.6 375.63 1910.16 383.82 1912.57 394.43 1912.09 399.73 1908.72 405.03 1901.97 414.19 1893.29 418.05 1884.61 424.8 1878.35 439.26 1874.01 452.76 1877.38 477.34 1893.77 490.84 1901.48 503.38 1905.82 525.55 1904.38 540.5 1910.65 559.78 1924.14 572.8 1939.57 578.58 1945.35 580.03 1948.25 581.47 1950.18 584.85 1952.1 587.26 1952.59 592.08 1953.06 600.76 1949.69 606.06 1946.8 618.59 1946.32 626.3 1947.28 632.57 1947.28 637.87 1948.73 641.25 1948.73 649.45 1944.87 659.09 1936.67 661.5 1935.23 666.8 1934.75 669.69 1935.23 677.41 1938.6 685.12 1940.05 690.9 1940.53 702.95 1943.91 723.2 1950.66 727.06 1950.66 728.99 1949.69 731.88 1950.18 734.77 1949.69 740.07 1947.77 740.07 1644.06 740.07 1643.58 740.07 1546.2 743.45 1548.13 748.27 1549.57 751.16 1549.57 753.09 1548.61 753.57 1547.64 754.05 1544.27 751.64 1533.18 752.13 1527.4 752.61 1525.96 754.05 1524.99 757.91 1524.02 761.29 1523.06 762.25 1522.09 763.7 1520.16 764.18 1518.23 764.18 1515.83 763.21 1514.38 755.98 1510.52 754.54 1509.08 754.05 1506.18 755.02 1503.3 760.8 1498.96 764.66 1497.03 769 1495.58 771.41 1495.58 775.27 1494.13 776.23 1492.69 777.19 1489.8 778.64 1489.8 780.57 1489.8 782.98 1491.72 781.05 1500.89 781.05 1505.23 781.53 1506.67 782.5 1507.63 784.42 1509.08 786.35 1509.56 791.17 1509.56 793.1 1509.56 794.55 1508.6 800.82 1501.85 803.23 1500.4 805.15 1500.4 809.49 1498.47 813.35 1494.62 814.31 1493.17 817.21 1491.72 818.17 1492.21 821.06 1496.55 822.03 1502.81 822.03 1504.74 824.92 1509.56 824.92 1512.94 822.03 1519.2 822.51 1521.13 823.47 1522.09 826.36 1522.57 827.33 1522.57 828.29 1521.62 829.26 1518.23 829.26 1515.83 831.19 1511.49 833.11 1510.52 837.45 1510.04 843.24 1510.04 846.13 1509.56 851.92 1507.63 852.88 1508.11 853.84 1510.52 855.29 1516.31 856.25 1519.2 858.18 1520.65 862.04 1521.13 864.93 1519.2 865.9 1518.72 865.9 1517.28 865.9 1514.38 864.93 1509.08 864.93 1506.67 863.97 1504.26 863 1501.85 862.52 1497.03 863 1496.06 864.93 1495.58 868.31 1494.62 870.23 1494.62 871.68 1495.1 872.16 1496.06 874.57 1503.3 874.57 1505.23 876.02 1508.6 876.02 1510.52 875.54 1512.45 870.72 1519.2 870.23 1522.09 870.23 1524.99 872.16 1527.88 874.09 1529.33 875.54 1529.81 877.46 1529.33 879.88 1526.91 880.84 1524.99 879.88 1516.79 880.84 1514.86 881.8 1513.42 885.18 1512.45 889.03 1512.45 896.27 1513.42 902.05 1515.35 903.01 1515.83 903.5 1518.23 900.12 1525.96 900.12 1527.4 900.61 1528.84 902.53 1530.29 908.32 1530.29 909.76 1529.33 910.73 1526.43 911.21 1522.57 912.17 1518.23 911.69 1511.49 912.17 1509.08 915.07 1508.6 916.99 1507.15 924.71 1506.67 926.64 1508.11 927.6 1509.08 928.57 1511.49 929.05 1513.42 928.57 1516.31 927.6 1518.72 926.15 1520.16 923.26 1522.09 920.85 1527.4 921.33 1530.29 924.71 1530.29 931.94 1527.88 934.83 1525.47 935.31 1523.54 933.87 1517.76 933.87 1513.42 934.83 1511.97 937.24 1511.49 939.65 1511.49 942.55 1513.42 951.7 1522.09 954.6 1524.5 955.56 1524.5 959.42 1522.57 964.72 1517.76 969.54 1515.35 972.43 1514.38 980.15 1515.83 984 1517.76 985.45 1519.2 988.34 1520.16 991.23 1513.42 990.27 1508.6 988.82 1506.18 987.86 1505.23 986.41 1505.23 979.18 1505.23 975.33 1504.74 973.88 1503.3 973.4 1501.85 974.36 1500.4 975.33 1499.92 981.59 1499.92 984.97 1498.96 986.89 1497.51 995.57 1497.03 997.02 1496.06 999.43 1493.65 999.91 1491.24 999.91 1488.35 1000.88 1484.01 1003.29 1484.5 1004.25 1485.46 1005.21 1486.42 1005.21 1489.31 1003.77 1492.69 1004.25 1495.58 1005.7 1497.51 1007.14 1497.99 1009.07 1498.47 1013.41 1498.47 1016.78 1497.99 1018.23 1497.03 1020.16 1494.62 1023.53 1491.72 1028.84 1489.31 1031.25 1488.83 1032.69 1489.31 1033.66 1490.28 1034.14 1492.69 1034.14 1496.55 1032.69 1505.23 1032.69 1508.6 1035.1 1509.56 1038.96 1510.04 1041.37 1508.6 1043.3 1506.67 1046.67 1504.74 1048.12 1504.26 1056.8 1503.3 1057.28 1502.81 1056.8 1498.47 1055.83 1497.03 1050.53 1493.65 1049.08 1492.21 1048.6 1491.24 1048.12 1489.31 1050.05 1486.42 1051.49 1485.94 1052.46 1484.97 1059.21 1484.5 1060.17 1485.94 1060.65 1487.38 1063.06 1490.28 1064.03 1495.58 1063.54 1499.92 1064.03 1500.89 1064.51 1501.36 1065.47 1500.89 1073.19 1495.58 1075.6 1492.69 1077.04 1491.72 1078.97 1488.83 1080.9 1485.94 1081.86 1484.97 1083.79 1483.53 1086.2 1483.04 1088.13 1479.67 1089.1 1477.75 1090.06 1476.3 1091.5 1475.33 1096.33 1475.82 1097.77 1475.33 1105.97 1469.07 1107.41 1468.58 1108.86 1469.55 1110.31 1473.89 1111.27 1481.6 1112.72 1482.57 1115.13 1481.12 1123.8 1471.48 1130.07 1466.65 1142.12 1460.39 1152.25 1462.31 1152.73 1461.84 1153.21 1460.87 1151.28 1458.46 1149.83 1454.12 1149.83 1450.26 1151.28 1446.41 1155.14 1443.51 1156.59 1443.51 1160.44 1444.48 1171.05 1451.23 1172.49 1452.19 1173.94 1452.19 1174.9 1449.78 1175.39 1447.85 1175.39 1442.55 1174.9 1438.21 1173.46 1433.39 1172.49 1431.95 1170.08 1430.98 1168.15 1430.5 1160.92 1431.95 1159.48 1430.98 1158.51 1429.54 1159 1425.68 1161.89 1419.9 1163.82 1418.45 1166.22 1417.97 1169.6 1417.49 1172.01 1417.97 1173.94 1417.97 1175.87 1416.04 1178.28 1415.07 1179.72 1412.66 1180.69 1406.88 1179.72 1400.13 1179.72 1397.72 1180.21 1395.31 1182.14 1394.34 1186.48 1393.86 1194.19 1394.83 1202.38 1389.05 1214.44 1384.71 1222.15 1376.99 1223.59 1375.06 1226.49 1372.66 1234.2 1368.8 1236.13 1367.35 1239.02 1365.9 1240.95 1363.98 1245.29 1362.53 1250.59 1362.53 1252.52 1363.49 1254.93 1366.86 1258.3 1374.58 1261.2 1377.47 1265.53 1380.37 1271.32 1383.74 1272.76 1384.71 1277.59 1387.59 1280.96 1389.53 1283.37 1390 1289.15 1390 1291.56 1389.05 1294.46 1386.15 1298.8 1381.33 1303.14 1375.54 1304.58 1372.17 1304.58 1370.24 1306.99 1363.49 1308.44 1361.08 1310.37 1359.15 1315.19 1357.23 1319.05 1356.74 1323.38 1357.23 1330.13 1362.53 1333.51 1368.8 1333.99 1372.66 1333.99 1382.78 1334.47 1384.71 1335.44 1387.59 1340.25 1387.59 1342.67 1387.12 1343.63 1382.29 1344.11 1375.06 1343.63 1371.2 1344.59 1367.83 1345.56 1365.42 1347.97 1364.46 1349.9 1361.08 1353.27 1357.71 1355.2 1356.74 1361.95 1356.26 1365.81 1357.71 1367.73 1360.6 1367.73 1362.53 1369.18 1365.42 1369.18 1367.35 1367.73 1373.13 1367.73 1378.44 1369.18 1380.37 1372.07 1380.85 1376.89 1379.88 1378.82 1378.44 1379.78 1375.06 1380.27 1364.94 1379.3 1360.6 1378.34 1356.26 1376.89 1352.89 1376.41 1349.03 1377.37 1345.66 1378.82 1344.21 1386.53 1345.18 1389.43 1345.18 1391.84 1343.73 1392.8 1342.28 1393.28 1339.87 1391.84 1337.46 1387.02 1331.2 1387.02 1327.82 1390.39 1324.45 1391.84 1323 1395.21 1323.96 1405.82 1328.79 1410.64 1336.98 1416.9 1343.73 1420.28 1344.69 1422.21 1344.21 1424.13 1343.25 1426.55 1341.8 1427.99 1339.39 1428.96 1333.6 1428.47 1331.2 1427.51 1329.27 1423.17 1327.34 1417.39 1325.89 1414.49 1325.89 1406.78 1323 1405.82 1319.14 1405.82 1315.77 1408.23 1314.32 1410.64 1312.87 1414.98 1312.4 1422.21 1315.28 1424.62 1317.21 1427.03 1317.69 1433.78 1321.55 1438.12 1322.52 1443.9 1319.14 1445.35 1316.74 1446.79 1313.35 1446.79 1310.47 1443.9 1301.3 1445.35 1296.48 1448.72 1295.52 1453.06 1295.52 1454.99 1294.08 1459.33 1293.11 1461.74 1289.74 1464.15 1288.77 1468.01 1291.18 1475.72 1297.93 1481.02 1298.41 1483.43 1297.93 1485.84 1296.97 1494.04 1290.21 1500.3 1282.02 1506.57 1269.49 1509.94 1266.11 1519.59 1260.33 1524.4 1258.4 1527.3 1256.48 1531.64 1255.02 1535.01 1255.99 1540.31 1259.85 1545.62 1269.49 1547.55 1271.42 1548.03 1271.42 1551.89 1268.53 1554.3 1268.04 1559.12 1267.56 1561.04 1267.08 1563.46 1262.26 1562.97 1259.85 1563.46 1255.99 1562.49 1251.65 1563.46 1246.35 1564.42 1242.49 1567.79 1241.04 1571.65 1240.56 1575.99 1244.42 1578.4 1246.83 1579.85 1249.72 1583.7 1253.58 1585.63 1257.43 1586.59 1260.33 1589.49 1265.15 1593.82 1269.01 1598.65 1271.42 1602.02 1272.38 1608.29 1270.94 1612.15 1268.04 1613.11 1266.11 1613.59 1264.19 1612.62 1261.29 1611.66 1259.85 1607.81 1253.58 1605.88 1251.17 1602.02 1245.38 1600.57 1241.53 1600.09 1238.16 1599.61 1228.99 1601.05 1225.62 1601.05 1222.24 1602.98 1218.87 1605.39 1216.94 1608.29 1215.02 1611.18 1214.53 1615.52 1215.5 1619.86 1215.5 1621.78 1215.98 1627.09 1215.98 1633.35 1215.5 1640.11 1206.82 1641.55 1205.37 1643.96 1204.41 1646.85 1203.93 1650.23 1204.41 1652.64 1205.85 1656.5 1211.64 1657.94 1215.98 1658.91 1224.17 1666.62 1233.33 1672.4 1236.71 1679.63 1239.6 1682.53 1241.04 1689.76 1242.01 1697.47 1241.53 1703.26 1239.12 1706.63 1237.19 1717.72 1233.33 1724.95 1235.26 1727.36 1236.71 1728.81 1238.16 1730.73 1241.53 1733.63 1249.72 1734.59 1251.17 1735.55 1251.17 1736.52 1250.69 1740.86 1244.42 1744.72 1240.09 1747.61 1237.19 1751.46 1235.75 1757.25 1234.78 1763.03 1234.29 1777.98 1235.75 1789.07 1233.82 1794.37 1232.37 1802.56 1230.92 1824.74 1229.96 1829.08 1228.51 1831.97 1226.1 1832.93 1224.17 1833.42 1221.28 1832.93 1218.87 1830.04 1217.43 1817.5 1216.94 1815.58 1214.53 1815.58 1211.16 1817.99 1208.75 1824.26 1206.82 1829.08 1206.34 1839.2 1206.82 1847.88 1208.27 1850.29 1209.71 1852.7 1216.94 1854.14 1219.83 1854.63 1222.73 1852.7 1234.78 1853.18 1242.01 1854.63 1245.87 1855.59 1246.35 1857.04 1245.87 1858.96 1245.38 1861.86 1242.01 1865.71 1233.82 1868.12 1225.14 1869.09 1220.8 1869.57 1217.43 1866.68 1207.78 1865.71 1200.07 1866.68 1197.66 1868.12 1196.22 1870.05 1195.73 1872.95 1196.22 1878.25 1202 1880.66 1204.41 1885 1209.23 1894.64 1223.69 1897.05 1226.58 1900.91 1229.96 1906.69 1230.44 1908.62 1229.96 1911.03 1228.03 1912.96 1223.69 1914.4 1215.98 1915.85 1213.09 1917.78 1210.68 1921.15 1209.71 1924.53 1209.23 1927.42 1210.68 1928.87 1212.61 1929.83 1214.53 1929.35 1219.83 1927.9 1223.69 1925.01 1230.92 1924.05 1235.75 1924.05 1240.09 1925.01 1241.53 1925.97 1242.49 1935.13 1243.46 1943.33 1242.97 1946.7 1242.49 1948.15 1239.12 1952 1231.41 1957.31 1228.51 1960.68 1229.48 1966.47 1229.96 1971.29 1229.96 1974.18 1228.99 1975.14 1228.03 1975.14 1226.1 1975.14 1222.73 1971.77 1215.02 1972.25 1212.12 1975.14 1211.16 1992.94 1216.46 1995.35 1216.94 1996.32 1216.46 1998.24 1215.5 2003.55 1207.78 2008.37 1207.3 2016.56 1211.16 2027.65 1218.39 2030.54 1219.83 2033.92 1221.76 2036.33 1222.24 2038.74 1221.76 2040.67 1221.28 2041.63 1219.36 2041.63 1215.98 2043.08 1210.19 2043.08 1204.41 2044.04 1199.59 2046.93 1198.14 2049.35 1201.03 2053.2 1204.89 2058.5 1207.3 2065.25 1212.61 2073.45 1216.94 2075.86 1220.32 2078.75 1221.76 2082.61 1225.14 2088.39 1227.55 2090.8 1227.07 2091.77 1224.66 2093.21 1215.98 2092.25 1210.19 2092.73 1204.89 2095.14 1202.48 2097.55 1200.56 2101.41 1200.07 2105.27 1201.03 2108.64 1208.27 2109.12 1217.9 2110.57 1219.83 2112.01 1219.36 2120.21 1214.53 2126.47 1205.37 2125.99 1200.56 2124.07 1191.88 2124.07 1188.5 2125.03 1185.12 2128.89 1181.75 2132.26 1181.27 2136.6 1182.71 2139.97 1185.61 2141.9 1188.98 2143.83 1192.36 2144.31 1206.34 2144.8 1208.75 2146.24 1211.16 2148.17 1212.12 2150.58 1212.61 2155.4 1213.09 2157.33 1211.64 2162.63 1206.34 2167.45 1205.85 2173.24 1215.5 2175.16 1216.46 2180.47 1217.43 2182.39 1217.43 2184.81 1216.94 2187.7 1215.5 2192.52 1206.82 2193.97 1204.89 2198.79 1202.48 2203.61 1202.96 2204.57 1202.48 2208.43 1194.77 2211.32 1193.32 2214.69 1194.29 2217.11 1198.14 2222.89 1203.44 2224.34 1203.93 2227.23 1204.89 2230.6 1204.41 2232.05 1203.93 2233.01 1202.96 2234.46 1200.07 2235.91 1191.88 2238.31 1189.95 2239.76 1189.95 2241.21 1190.91 2245.07 1196.22 2247.47 1198.14 2258.56 1201.03 2269.17 1201.51 2270.61 912.27 2272.54 448.52 2272.06 100.46"/>
  </g>
</svg>