<svg xmlns="http://www.w3.org/2000/svg" viewBox="0 0 1920 959" preserveAspectRatio="xMidYMid" width="1920" height="959" xmlns:xlink="http://www.w3.org/1999/xlink" style="shape-rendering:auto;display:block;background-position-x:0%;background-position-y:0%;background-size:auto;background-origin:padding-box;background-clip:border-box;background:scroll rgb(101, 215, 255) none  repeat;width:1920px;height:959px;;animation:none"><g><linearGradient y2="0" y1="0" x2="1" x1="0" id="lg-8h4uuc6rsmd"><stop offset="0" stop-color="#ffffff"></stop>

  
<stop offset="1" stop-color="#ffffff"></stop></linearGradient>
<path opacity="0.17" fill="url(#lg-8h4uuc6rsmd)" d="M 0 0 L 0 595.04 Q 192 590.74 384 549.72 T 768 544.13 T 1152 564.13 T 1536 531.1 T 1920 433.38 L 1920 0 Z" style="fill:url('#lg-8h4uuc6rsmd');opacity:0.17;;animation:none"></path>
<path opacity="0.17" fill="url(#lg-8h4uuc6rsmd)" d="M 0 0 L 0 587.11 Q 192 646.09 384 604.41 T 768 572.85 T 1152 496.82 T 1536 560.14 T 1920 519.66 L 1920 0 Z" style="fill:url('#lg-8h4uuc6rsmd');opacity:0.17;;animation:none"></path>
<path opacity="0.17" fill="url(#lg-8h4uuc6rsmd)" d="M 0 0 L 0 682.56 Q 192 604.81 384 586.51 T 768 534.04 T 1152 537.96 T 1536 525.02 T 1920 489.48 L 1920 0 Z" style="fill:url('#lg-8h4uuc6rsmd');opacity:0.17;;animation:none"></path>
<g></g></g><!-- [ldio] generated by https://loading.io --></svg>